# xmcd
#
# Track frame offsets:
#	150
#	27290
#	45130
#	69927
#	95972
#	113865
#	134610
#	154370
#	181452
#	204875
#	226695
#	249042
#
# Disc length: 3606 seconds
#
# Revision: 1572302149
# Processed by: cddbd v1.5.2PL0 Copyright (c) Steve Scherf et al.
# Submitted via: EZCDAudioConverter 8.0.2.1
#
DISCID=950e140c
DTITLE=Khánh Hà - Nỗi Đau Dịu Dàng
DYEAR=1998
DGENRE=Miscellaneous
TTITLE0=Nỗi Đau Dịu Dàng
TTITLE1=Cơn mưa phùn
TTITLE2=Phone cho em
TTITLE3=Trở về bến mơ
TTITLE4=Cát bụi tình xa
TTITLE5=Bài không tên số 4
TTITLE6=Sao không đến bên em
TTITLE7=Con đường tình ta đi
TTITLE8=Mắt biếc
TTITLE9=Một ngày như mọi ngày
TTITLE10=Ngậm Ngùi
TTITLE11=Căn nhà xinh
EXTD=
EXTT0=
EXTT1=
EXTT2=
EXTT3=
EXTT4=
EXTT5=
EXTT6=
EXTT7=
EXTT8=
EXTT9=
EXTT10=
EXTT11=
PLAYORDER=
